<?xml version="1.0" standalone="no"?>
<!DOCTYPE svg PUBLIC "-//W3C//DTD SVG 20010904//EN"
 "http://www.w3.org/TR/2001/REC-SVG-20010904/DTD/svg10.dtd">
<svg version="1.0" xmlns="http://www.w3.org/2000/svg"
 width="500.000000pt" height="500.000000pt" viewBox="0 0 500.000000 500.000000"
 preserveAspectRatio="xMidYMid meet">
<metadata>
Created by potrace 1.11, written by Peter Selinger 2001-2013
</metadata>
<g transform="translate(0.000000,500.000000) scale(0.100000,-0.100000)"
fill="#000000" stroke="none">
<path d="M0 2500 l0 -2500 2500 0 2500 0 0 2500 0 2500 -2500 0 -2500 0 0
-2500z m1970 633 c0 -522 4 -844 11 -872 38 -166 204 -329 384 -377 66 -18
206 -17 275 1 141 38 286 148 344 264 55 108 56 117 56 999 l0 812 245 0 245
0 0 -863 c0 -559 -4 -884 -11 -923 -24 -141 -87 -283 -176 -401 -318 -423
-983 -522 -1460 -217 -77 49 -194 164 -253 249 -61 89 -101 173 -132 281 l-23
79 -3 898 -3 897 251 0 250 0 0 -827z"/>
</g>
</svg>
